<svg xmlns="http://www.w3.org/2000/svg" xmlns:xlink="http://www.w3.org/1999/xlink">
	<symbol id="mdi-arrow-outward" class="sprites__symbol" height="48" width="48">
		<title>Material Design Icons</title>
		<path
			d="M33 15.1 13.45 34.65q-.45.45-1.05.45-.6 0-1.05-.45-.45-.45-.45-1.075t.45-1.075L30.9 13H13.5q-.65 0-1.075-.425Q12 12.15 12 11.5q0-.65.425-1.075Q12.85 10 13.5 10h21q.65 0 1.075.425Q36 10.85 36 11.5v21q0 .65-.425 1.075Q35.15 34 34.5 34q-.65 0-1.075-.425Q33 33.15 33 32.5Z" />
	</symbol>

	<symbol id="mdi-menu" class="sprites__symbol" height="48" width="48">
		<title>Material Design Icons</title>
		<path
			d="M7.5 36q-.65 0-1.075-.425Q6 35.15 6 34.5q0-.65.425-1.075Q6.85 33 7.5 33h33q.65 0 1.075.425Q42 33.85 42 34.5q0 .65-.425 1.075Q41.15 36 40.5 36Zm0-10.5q-.65 0-1.075-.425Q6 24.65 6 24q0-.65.425-1.075Q6.85 22.5 7.5 22.5h33q.65 0 1.075.425Q42 23.35 42 24q0 .65-.425 1.075-.425.425-1.075.425Zm0-10.5q-.65 0-1.075-.425Q6 14.15 6 13.5q0-.65.425-1.075Q6.85 12 7.5 12h33q.65 0 1.075.425Q42 12.85 42 13.5q0 .65-.425 1.075Q41.15 15 40.5 15Z" />
	</symbol>


	<symbol id="mdi-play" class="sprites__symbol" height="48" width="48">
		<title>Material Design Icons</title>
		<path
			d="M18.3 36.4q-.75.5-1.525.05Q16 36 16 35.1V12.6q0-.9.775-1.35.775-.45 1.525.05L36 22.6q.7.45.7 1.25T36 25.1Zm.7-12.55Zm0 8.55 13.45-8.55L19 15.3Z" />
	</symbol>

	<symbol id="mdi-play-circle" class="sprites__symbol" height="48" width="48">
		<title>Material Design Icons</title>
		<path
			d="M19.15 18.25v11.5q0 .9.775 1.35.775.45 1.525-.05l9.05-5.8q.7-.45.7-1.25t-.7-1.25l-9.05-5.8q-.75-.5-1.525-.05-.775.45-.775 1.35ZM24 44q-4.1 0-7.75-1.575-3.65-1.575-6.375-4.3-2.725-2.725-4.3-6.375Q4 28.1 4 24t1.575-7.75q1.575-3.65 4.3-6.375 2.725-2.725 6.375-4.3Q19.9 4 24 4t7.75 1.575q3.65 1.575 6.375 4.3 2.725 2.725 4.3 6.375Q44 19.9 44 24t-1.575 7.75q-1.575 3.65-4.3 6.375-2.725 2.725-6.375 4.3Q28.1 44 24 44Zm0-20Zm0 17q7 0 12-5t5-12q0-7-5-12T24 7q-7 0-12 5T7 24q0 7 5 12t12 5Z" />
	</symbol>

	<symbol id="mdi-smart-display" class="sprites__symbol" height="48" width="48">
		<title>Material Design Icons</title>
		<path
			d="m21.9 30.85 8.75-5.7q.7-.45.7-1.25t-.7-1.25l-8.75-5.7q-.75-.5-1.525-.075-.775.425-.775 1.325v11.4q0 .9.775 1.325.775.425 1.525-.075ZM7 40q-1.2 0-2.1-.9Q4 38.2 4 37V11q0-1.2.9-2.1Q5.8 8 7 8h34q1.25 0 2.125.9T44 11v26q0 1.2-.875 2.1-.875.9-2.125.9Zm0-3V11v26Zm0 0h34V11H7v26Z" />
	</symbol>

	<symbol id="mdi-close" class="sprites__symbol" height="48" width="48">
		<title>Material Design Icons</title>
		<path
			d="M24 26.1 13.5 36.6q-.45.45-1.05.45-.6 0-1.05-.45-.45-.45-.45-1.05 0-.6.45-1.05L21.9 24 11.4 13.5q-.45-.45-.45-1.05 0-.6.45-1.05.45-.45 1.05-.45.6 0 1.05.45L24 21.9l10.5-10.5q.45-.45 1.05-.45.6 0 1.05.45.45.45.45 1.05 0 .6-.45 1.05L26.1 24l10.5 10.5q.45.45.45 1.05 0 .6-.45 1.05-.45.45-1.05.45-.6 0-1.05-.45Z" />
	</symbol>

	<symbol id="mdi-close-circle" class="sprites__symbol" height="48" width="48">
		<title>Material Design Icons</title>
		<path
			d="M15.45 32.55q.45.45 1.05.45.6 0 1.05-.45L24 26.1l6.5 6.5q.4.4 1.025.375.625-.025 1.025-.425.45-.45.45-1.05 0-.6-.45-1.05L26.1 24l6.5-6.5q.4-.4.375-1.025-.025-.625-.425-1.025Q32.1 15 31.5 15q-.6 0-1.05.45L24 21.9l-6.5-6.5q-.4-.4-1.025-.375-.625.025-1.025.425-.45.45-.45 1.05 0 .6.45 1.05L21.9 24l-6.5 6.5q-.4.4-.375 1.025.025.625.425 1.025ZM24 44q-4.25 0-7.9-1.525-3.65-1.525-6.35-4.225-2.7-2.7-4.225-6.35Q4 28.25 4 24q0-4.2 1.525-7.85Q7.05 12.5 9.75 9.8q2.7-2.7 6.35-4.25Q19.75 4 24 4q4.2 0 7.85 1.55Q35.5 7.1 38.2 9.8q2.7 2.7 4.25 6.35Q44 19.8 44 24q0 4.25-1.55 7.9-1.55 3.65-4.25 6.35-2.7 2.7-6.35 4.225Q28.2 44 24 44Zm0-20Zm0 17q7 0 12-5t5-12q0-7-5-12T24 7q-7 0-12 5T7 24q0 7 5 12t12 5Z" />
	</symbol>
</svg>